<svg id="svg" version="1.1" xmlns="http://www.w3.org/2000/svg" xmlns:xlink="http://www.w3.org/1999/xlink" width="400" height="273" viewBox="0, 0, 400,273"><g id="svgg"><path id="path0" d="M315.979 5.179 C 257.926 34.910,197.861 49.315,108.029 55.051 C 80.324 56.819,83.044 50.347,83.044 114.500 C 83.044 178.732,80.256 172.234,108.553 173.943 C 195.456 179.190,264.789 195.978,317.000 224.414 C 325.777 229.195,332.730 229.424,337.077 225.077 L 340.000 222.154 340.000 202.786 L 340.000 183.417 347.188 181.730 C 414.912 165.836,419.162 69.528,353.085 48.082 C 349.557 46.937,345.461 46.000,343.985 46.000 C 340.966 46.000,340.000 39.310,340.000 18.411 C 340.000 -0.648,333.908 -4.003,315.979 5.179 M46.000 57.560 C -0.305 67.541,-15.320 128.492,21.042 158.875 C 36.095 171.453,59.901 176.432,66.896 168.465 L 70.000 164.930 70.000 114.430 C 70.000 69.203,69.828 63.667,68.352 61.414 C 64.788 55.976,58.434 54.880,46.000 57.560 M258.172 72.005 C 261.842 72.536,267.354 73.909,270.422 75.057 L 276.000 77.144 275.985 85.322 C 275.967 94.908,275.178 96.959,272.605 94.116 C 264.802 85.493,241.464 84.900,238.568 93.250 C 236.144 100.238,241.945 104.868,256.447 107.521 C 275.978 111.094,283.975 118.365,283.994 132.568 C 284.024 154.411,261.486 166.450,234.419 159.049 C 221.803 155.599,222.000 155.849,222.000 143.269 L 222.000 132.584 226.250 136.744 C 239.558 149.771,266.905 148.339,267.294 134.595 C 267.482 127.982,263.612 125.759,247.116 123.004 C 230.466 120.223,222.000 112.048,222.000 98.752 C 222.000 82.226,231.529 72.993,250.500 71.137 C 251.050 71.084,254.502 71.474,258.172 72.005 M88.763 185.565 C 80.526 190.034,80.982 195.936,92.444 233.190 C 105.775 276.518,102.786 273.000,126.258 273.000 C 154.775 273.000,155.709 270.712,143.056 231.880 C 138.686 218.471,134.084 204.194,132.829 200.154 C 130.023 191.124,126.050 186.229,120.500 184.961 C 113.796 183.430,91.931 183.846,88.763 185.565 " stroke="none" fill="#000000" fill-rule="evenodd"></path></g></svg>