<svg id="svg" xmlns="http://www.w3.org/2000/svg" xmlns:xlink="http://www.w3.org/1999/xlink" width="400" height="400" viewBox="0, 0, 400,400"><g id="svgg"><path id="path0" d="M314.979 69.179 C 256.926 98.910,196.861 113.315,107.029 119.051 C 79.324 120.819,82.044 114.347,82.044 178.500 C 82.044 242.732,79.256 236.234,107.553 237.943 C 194.456 243.190,263.789 259.978,316.000 288.414 C 324.777 293.195,331.730 293.424,336.077 289.077 L 339.000 286.154 339.000 266.786 L 339.000 247.417 346.188 245.730 C 413.912 229.836,418.162 133.528,352.085 112.082 C 348.557 110.937,344.461 110.000,342.985 110.000 C 339.966 110.000,339.000 103.310,339.000 82.411 C 339.000 63.352,332.908 59.997,314.979 69.179 M45.000 121.560 C -1.305 131.541,-16.320 192.492,20.042 222.875 C 35.095 235.453,58.901 240.432,65.896 232.465 L 69.000 228.930 69.000 178.430 C 69.000 133.203,68.828 127.667,67.352 125.414 C 63.788 119.976,57.434 118.880,45.000 121.560 M257.172 136.005 C 260.842 136.536,266.354 137.909,269.422 139.057 L 275.000 141.144 274.985 149.322 C 274.967 158.908,274.178 160.959,271.605 158.116 C 263.802 149.493,240.464 148.900,237.568 157.250 C 235.144 164.238,240.945 168.868,255.447 171.521 C 274.978 175.094,282.975 182.365,282.994 196.568 C 283.024 218.411,260.486 230.450,233.419 223.049 C 220.803 219.599,221.000 219.849,221.000 207.269 L 221.000 196.584 225.250 200.744 C 238.558 213.771,265.905 212.339,266.294 198.595 C 266.482 191.982,262.612 189.759,246.116 187.004 C 229.466 184.223,221.000 176.048,221.000 162.752 C 221.000 146.226,230.529 136.993,249.500 135.137 C 250.050 135.084,253.502 135.474,257.172 136.005 M87.763 249.565 C 79.526 254.034,79.982 259.936,91.444 297.190 C 104.775 340.518,101.786 337.000,125.258 337.000 C 153.775 337.000,154.709 334.712,142.056 295.880 C 137.686 282.471,133.084 268.194,131.829 264.154 C 129.023 255.124,125.050 250.229,119.500 248.961 C 112.796 247.430,90.931 247.846,87.763 249.565 " stroke="none" fill="#000000" fill-rule="evenodd"></path></g></svg>