<?xml version="1.0" encoding="UTF-8"?>
<svg xmlns="http://www.w3.org/2000/svg" xmlns:xlink="http://www.w3.org/1999/xlink" width="24pt" height="24pt" viewBox="0 0 24 24" version="1.1">
<g id="surface1">
<path style=" stroke:none;fill-rule:nonzero;fill:rgb(0%,0%,0%);fill-opacity:1;" d="M 23.726562 11.335938 C 23.726562 11.335938 23.722656 11.335938 23.722656 11.335938 L 18.824219 6.460938 C 18.457031 6.09375 17.863281 6.097656 17.5 6.464844 C 17.132812 6.832031 17.136719 7.425781 17.503906 7.789062 L 20.792969 11.0625 L 0.9375 11.0625 C 0.417969 11.0625 0 11.480469 0 12 C 0 12.519531 0.417969 12.9375 0.9375 12.9375 L 20.792969 12.9375 L 17.503906 16.210938 C 17.136719 16.574219 17.132812 17.167969 17.5 17.535156 C 17.863281 17.902344 18.457031 17.90625 18.824219 17.539062 L 23.722656 12.664062 C 23.722656 12.664062 23.726562 12.664062 23.726562 12.664062 C 24.09375 12.296875 24.089844 11.703125 23.726562 11.335938 Z M 23.726562 11.335938 "/>
</g>
</svg>
